<svg width="124" height="50" viewBox="0 0 124 50" fill="none" xmlns="http://www.w3.org/2000/svg">
<g clip-path="url(#clip0_469_65)">
<rect x="0.242676" y="6.79614" width="36.4078" height="36.4078" rx="18.2039" fill="#8D75F5"/>
<path d="M27.3192 26.63C27.3192 27.9181 27.0614 29.0264 26.5734 29.8356C25.947 30.8751 24.9733 31.425 23.7579 31.425C21.4381 31.425 19.8785 28.5147 18.2279 25.4338C17.0286 23.1958 15.5402 20.4109 14.3164 20.4109C13.7267 20.4109 13.0039 21.1276 12.4302 22.281C11.7741 23.6379 11.4257 25.1229 11.4099 26.63C11.4099 27.5708 11.5812 28.3724 11.8918 28.8879C12.1801 29.3667 12.5756 29.5893 13.1354 29.5893C14.1871 29.5893 15.4782 27.3712 15.9027 26.6453C16.0254 26.435 16.2265 26.2819 16.462 26.2199C16.6975 26.1579 16.9479 26.1919 17.1583 26.3145C17.3686 26.4371 17.5217 26.6383 17.5837 26.8738C17.6457 27.1092 17.6117 27.3597 17.4891 27.5701C16.8076 28.7388 16.2248 29.5587 15.6534 30.1538C14.8327 31.0089 14.0105 31.425 13.1354 31.425C11.9201 31.425 10.9464 30.8751 10.32 29.8356C9.83198 29.0264 9.57422 27.9181 9.57422 26.63C9.57422 23.2669 11.3778 18.5752 14.3164 18.5752C16.6363 18.5752 18.1958 21.4855 19.8464 24.5664C21.0473 26.8044 22.5365 29.5893 23.7579 29.5893C24.3178 29.5893 24.7133 29.3667 25.0016 28.8879C25.3122 28.3724 25.4835 27.5708 25.4835 26.63C25.468 25.123 25.1198 23.6379 24.4639 22.281C23.8903 21.1276 23.1675 20.4109 22.577 20.4109C22.1395 20.4109 21.6125 20.7933 21.0098 21.5452C20.8576 21.7353 20.6362 21.8571 20.3942 21.8839C20.1522 21.9108 19.9095 21.8404 19.7194 21.6882C19.5294 21.5361 19.4075 21.3147 19.3807 21.0727C19.3539 20.8307 19.4243 20.588 19.5764 20.3979C20.5593 19.1718 21.5406 18.5752 22.577 18.5752C23.927 18.5752 25.1775 19.6009 26.1069 21.4633C26.8864 23.0753 27.3004 24.8396 27.3192 26.63Z" fill="white"/>
<path d="M58.0391 35.3222V15.8247H61.0473V35.3222H58.0391ZM45.3101 35.3222V15.8247H48.3182V35.3222H45.3101ZM46.6192 27.0497V24.1529H59.3761V27.0497H46.6192Z" fill="#16151C"/>
<path d="M66.4995 35.3222V15.8247H74.7998C75.914 15.8247 76.9353 16.1032 77.8637 16.6603C78.8107 17.1988 79.5628 17.9416 80.1199 18.8886C80.6769 19.817 80.9555 20.8662 80.9555 22.036C80.9555 23.0945 80.6769 24.0786 80.1199 24.9885C79.5628 25.8984 78.82 26.6319 77.8916 27.1889C76.9631 27.7274 75.9325 27.9967 74.7998 27.9967H69.5076V35.3222H66.4995ZM78.0865 35.3222L73.1286 26.5205L76.2204 25.8241L81.7354 35.35L78.0865 35.3222ZM69.5076 25.0999H75.0784C75.6169 25.0999 76.0997 24.9699 76.5267 24.71C76.9538 24.4314 77.2881 24.0601 77.5295 23.5958C77.7709 23.113 77.8916 22.5838 77.8916 22.0082C77.8916 21.3583 77.7337 20.7919 77.4181 20.3091C77.1209 19.8077 76.6939 19.4178 76.1368 19.1393C75.5983 18.8607 74.9855 18.7215 74.2985 18.7215H69.5076V25.0999Z" fill="#16151C"/>
<path d="M85.8664 35.3222V15.8247H88.8189L95.9215 27.3839L94.501 27.3561L101.687 15.8247H104.473V35.3222H101.464V27.3282C101.464 25.657 101.502 24.1529 101.576 22.8159C101.669 21.479 101.817 20.1513 102.021 18.8329L102.411 19.8634L96.0329 29.7236H94.1946L88.0111 19.9749L88.3175 18.8329C88.5218 20.077 88.661 21.3583 88.7353 22.6767C88.8282 23.9765 88.8746 25.527 88.8746 27.3282V35.3222H85.8664Z" fill="#16151C"/>
<path d="M115.955 35.6007C114.897 35.6007 113.913 35.4615 113.003 35.1829C112.112 34.9044 111.295 34.4866 110.552 33.9295C109.828 33.3539 109.178 32.6482 108.602 31.8126L110.663 29.4451C111.573 30.7449 112.446 31.6455 113.281 32.1469C114.117 32.6482 115.111 32.8989 116.262 32.8989C116.967 32.8989 117.608 32.7875 118.184 32.5647C118.759 32.3419 119.214 32.0355 119.549 31.6455C119.883 31.2556 120.05 30.8099 120.05 30.3085C120.05 29.9743 119.994 29.6586 119.883 29.3615C119.771 29.0644 119.595 28.7952 119.354 28.5538C119.131 28.3124 118.834 28.0895 118.462 27.8853C118.109 27.681 117.692 27.5046 117.209 27.3561C116.726 27.1889 116.169 27.0497 115.538 26.9383C114.535 26.734 113.662 26.4647 112.919 26.1305C112.177 25.7963 111.555 25.3785 111.053 24.8771C110.552 24.3757 110.18 23.8094 109.939 23.178C109.698 22.5281 109.577 21.8039 109.577 21.0054C109.577 20.2255 109.744 19.5014 110.078 18.8329C110.431 18.1644 110.905 17.5887 111.499 17.1059C112.112 16.6046 112.827 16.2239 113.644 15.9639C114.461 15.6854 115.343 15.5461 116.29 15.5461C117.292 15.5461 118.212 15.6761 119.047 15.9361C119.883 16.1961 120.626 16.586 121.275 17.1059C121.925 17.6073 122.464 18.2294 122.891 18.9721L120.774 21.0612C120.403 20.4484 119.985 19.9377 119.521 19.5292C119.056 19.1021 118.546 18.7864 117.989 18.5822C117.432 18.3594 116.837 18.2479 116.206 18.2479C115.482 18.2479 114.851 18.3594 114.312 18.5822C113.774 18.805 113.346 19.1207 113.031 19.5292C112.734 19.9192 112.585 20.3834 112.585 20.9219C112.585 21.3118 112.659 21.6739 112.808 22.0082C112.957 22.3238 113.179 22.6117 113.476 22.8716C113.792 23.113 114.21 23.3359 114.73 23.5401C115.25 23.7258 115.872 23.8929 116.596 24.0415C117.617 24.2643 118.527 24.5521 119.326 24.9049C120.124 25.2392 120.802 25.6384 121.359 26.1026C121.916 26.5669 122.334 27.0868 122.612 27.6624C122.91 28.2381 123.058 28.8602 123.058 29.5286C123.058 30.7728 122.77 31.8498 122.195 32.7597C121.619 33.6695 120.802 34.3752 119.744 34.8765C118.685 35.3593 117.422 35.6007 115.955 35.6007Z" fill="#16151C"/>
</g>
<defs>
<clipPath id="clip0_469_65">
<rect width="123.058" height="50" fill="white"/>
</clipPath>
</defs>
</svg>
